<mxfile host="app.diagrams.net" modified="2024-02-23T01:02:35.774Z" agent="Mozilla/5.0 (Windows NT 10.0; Win64; x64) AppleWebKit/537.36 (KHTML, like Gecko) Chrome/122.0.0.0 Safari/537.36" version="23.1.6" etag="c8RaNjFHU6rlx0kq_CrO" type="github">
  <diagram name="페이지-1" id="Cm4uVjfd1YzS-WkscLDU">
    <mxGraphModel>
      <root>
        <mxCell id="0" />
        <mxCell id="1" parent="0" />
      </root>
    </mxGraphModel>
  </diagram>
</mxfile>
